<svg version="1.1" xmlns="http://www.w3.org/2000/svg" width="475" height="512" viewBox="0 0 475 512"><title>chain-broken</title><path d="M125.428 363.143l-73.143 73.143c-2 1.714-4.285 2.572-6.572 2.572s-4.572-0.857-6.572-2.572c-3.428-3.714-3.428-9.428 0-13.143l73.143-73.143c3.715-3.428 9.428-3.428 13.143 0 3.428 3.714 3.428 9.428 0 13.143zM173.714 374.857v91.428c0 5.143-4 9.143-9.143 9.143s-9.143-4-9.143-9.143v-91.428c0-5.143 4-9.143 9.143-9.143s9.143 4 9.143 9.143zM109.715 310.857c0 5.143-4 9.143-9.143 9.143h-91.428c-5.143 0-9.143-4-9.143-9.143s4-9.143 9.143-9.143h91.428c5.143 0 9.143 4 9.143 9.143zM470.857 347.428c0 22-8.572 42.572-24.286 58l-42 41.714c-15.428 15.428-36 23.714-58 23.714s-42.857-8.572-58.286-24.286l-95.428-95.714c-4.857-4.857-8.572-10.286-12-16l68.286-5.143 78 78.286c10.286 10.286 28.572 10.572 38.857 0.286l42-41.714c5.143-5.143 8-12 8-19.143 0-7.428-2.857-14.286-8-19.428l-78.286-78.572 5.143-68.286c5.714 3.429 11.143 7.143 16 12l96 96c15.428 15.714 24 36.286 24 58.286zM294.572 140.571l-68.286 5.143-78-78.285c-5.143-5.143-12-8-19.428-8s-14.285 2.857-19.428 7.715l-42 41.715c-5.143 5.143-8 12-8 19.143 0 7.428 2.857 14.286 8 19.428l78.285 78.286-5.143 68.572c-5.714-3.428-11.143-7.143-16-12l-96-96c-15.428-15.714-24-36.286-24-58.286s8.572-42.572 24.285-58l42-41.715c15.428-15.428 36-23.715 58-23.715s42.857 8.572 58.286 24.285l95.428 95.715c4.857 4.857 8.572 10.286 12 16zM475.428 164.571c0 5.143-4 9.143-9.143 9.143h-91.428c-5.143 0-9.143-4-9.143-9.143s4-9.143 9.143-9.143h91.428c5.143 0 9.143 4 9.143 9.143zM320 9.143v91.428c0 5.143-4 9.143-9.143 9.143s-9.143-4-9.143-9.143v-91.428c0-5.143 4-9.143 9.143-9.143s9.143 4 9.143 9.143zM436.286 52.285l-73.143 73.143c-2 1.715-4.286 2.572-6.572 2.572s-4.572-0.857-6.572-2.572c-3.428-3.715-3.428-9.428 0-13.143l73.143-73.143c3.714-3.428 9.428-3.428 13.143 0 3.428 3.715 3.428 9.428 0 13.143z"></path></svg>