<svg version="1.1" xmlns="http://www.w3.org/2000/svg" width="475" height="512" viewBox="0 0 475 512"><title>home</title><path style="fill:#9f0009;" d="M402.286 283.428v137.143c0 10-8.286 18.286-18.286 18.286h-109.714v-109.714h-73.143v109.714h-109.715c-10 0-18.285-8.286-18.285-18.286v-137.143c0-0.572 0.285-1.143 0.285-1.714l164.286-135.429 164.286 135.429c0.286 0.572 0.286 1.143 0.286 1.714zM466 263.714l-17.714 21.143c-1.428 1.714-3.714 2.857-6 3.143h-0.857c-2.286 0-4.286-0.572-6-2l-197.714-164.857-197.714 164.857c-2 1.428-4.285 2.286-6.857 2-2.285-0.286-4.572-1.428-6-3.143l-17.715-21.143c-3.143-3.714-2.572-9.714 1.143-12.857l205.428-171.143c12-10 31.428-10 43.428 0l69.714 58.286v-55.715c0-5.143 4-9.143 9.143-9.143h54.857c5.143 0 9.143 4 9.143 9.143v116.572l62.572 52c3.714 3.143 4.286 9.143 1.143 12.857z"></path></svg>