<svg version="1.1" xmlns="http://www.w3.org/2000/svg" width="256" height="512" viewBox="0 0 256 512"><title>bolt</title><path style="fill:#9f0009;" d="M252.857 161.714c3.143 3.429 4 8.286 2 12.572l-154.286 330.572c-2.285 4.286-6.857 7.143-12 7.143-1.143 0-2.572-0.286-4-0.572-6.285-2-10-8-8.572-14l56.285-230.857-116 28.857c-1.143 0.286-2.285 0.286-3.428 0.286-3.143 0-6.572-1.143-8.857-3.143-3.429-2.857-4.572-7.143-3.715-11.143l57.428-235.714c1.428-5.428 6.572-9.143 12.572-9.143h93.715c7.143 0 12.857 5.428 12.857 12 0 1.715-0.571 3.428-1.429 5.143l-48.857 132.286 113.143-28c1.143-0.286 2.286-0.571 3.429-0.571 3.714 0 7.143 1.714 9.714 4.286z"></path></svg>