<svg version="1.1" xmlns="http://www.w3.org/2000/svg" width="439" height="512" viewBox="0 0 439 512"><title>file-text-o</title><path d="M419.428 108.572c10.572 10.572 19.428 31.715 19.428 46.857v329.143c0 15.143-12.286 27.428-27.428 27.428h-384c-15.143 0-27.428-12.286-27.428-27.428v-457.143c0-15.143 12.286-27.428 27.428-27.428h256c15.143 0 36.286 8.857 46.857 19.428zM292.572 38.857v107.429h107.428c-1.714-4.857-4.286-9.714-6.286-11.714l-89.428-89.428c-2-2-6.857-4.572-11.714-6.285zM402.286 475.428v-292.572h-118.857c-15.143 0-27.428-12.286-27.428-27.428v-118.857h-219.429v438.857h365.714zM109.715 228.571c0-5.143 4-9.143 9.143-9.143h201.143c5.143 0 9.143 4 9.143 9.143v18.285c0 5.143-4 9.143-9.143 9.143h-201.143c-5.143 0-9.143-4-9.143-9.143v-18.286zM320 292.572c5.143 0 9.143 4 9.143 9.143v18.286c0 5.143-4 9.143-9.143 9.143h-201.143c-5.143 0-9.143-4-9.143-9.143v-18.286c0-5.143 4-9.143 9.143-9.143h201.143zM320 365.714c5.143 0 9.143 4 9.143 9.143v18.286c0 5.143-4 9.143-9.143 9.143h-201.143c-5.143 0-9.143-4-9.143-9.143v-18.286c0-5.143 4-9.143 9.143-9.143h201.143z"></path></svg>